<?xml version="1.0" encoding="utf-8"?>
<!-- Generator: Adobe Illustrator 16.0.0, SVG Export Plug-In . SVG Version: 6.00 Build 0)  -->
<!DOCTYPE svg PUBLIC "-//W3C//DTD SVG 1.1//EN" "http://www.w3.org/Graphics/SVG/1.1/DTD/svg11.dtd">
<svg xmlns="http://www.w3.org/2000/svg" xmlns:xlink="http://www.w3.org/1999/xlink" version="1.1" id="Eye" x="0px" y="0px" width="512" height="512" viewBox="0 0 144.083 144" enable-background="new 0 0 144.083 144" xml:space="preserve">
<path d="M119.286,70.011c-0.859-0.97-21.34-23.744-47.245-23.744S25.655,69.041,24.796,70.01c-1.006,1.136-1.006,2.845,0,3.98  c0.859,0.969,21.34,23.743,47.245,23.743s46.385-22.774,47.245-23.744C120.292,72.854,120.292,71.146,119.286,70.011z   M72.135,89.934c-10.109,0-18.334-8.225-18.334-18.334s8.225-18.334,18.334-18.334c10.109,0,18.333,8.225,18.333,18.334  S82.244,89.934,72.135,89.934z M52.807,56.839c-3.137,4.098-5.006,9.214-5.006,14.761c0,6.139,2.29,11.75,6.054,16.035  C43.168,82.968,34.822,75.534,31.22,72C34.704,68.581,42.626,61.521,52.807,56.839z M90.532,87.5  c3.694-4.269,5.937-9.825,5.937-15.9c0-5.486-1.827-10.554-4.901-14.628c10.042,4.683,17.845,11.643,21.295,15.028  C109.294,75.501,101.072,82.826,90.532,87.5z"/>
<path d="M72.041,58.268c-7.167,0-12.999,5.831-12.999,12.999s5.832,12.999,12.999,12.999s13-5.831,13-12.999  S79.208,58.268,72.041,58.268z M72.041,78.266c-3.859,0-6.999-3.14-6.999-6.999s3.14-6.999,6.999-6.999c3.86,0,7,3.14,7,6.999  S75.901,78.266,72.041,78.266z"/>
</svg>
